<mxfile host="app.diagrams.net" agent="Mozilla/5.0 (Windows NT 10.0; Win64; x64; rv:138.0) Gecko/20100101 Firefox/138.0" version="27.0.5">
  <diagram name="Page-1" id="wutBDkhWbQ-scgqLzm_1">
    <mxGraphModel dx="2526" dy="1271" grid="1" gridSize="10" guides="1" tooltips="1" connect="1" arrows="1" fold="1" page="1" pageScale="1" pageWidth="827" pageHeight="1169" math="0" shadow="0">
      <root>
        <mxCell id="0" />
        <mxCell id="1" parent="0" />
        <mxCell id="GKN7VQEKlt-6gVlBHE5--1" value="" style="endArrow=classic;html=1;rounded=0;entryX=0.033;entryY=0.524;entryDx=0;entryDy=0;entryPerimeter=0;exitX=1.004;exitY=0.462;exitDx=0;exitDy=0;exitPerimeter=0;" edge="1" parent="1" source="GKN7VQEKlt-6gVlBHE5--2" target="GKN7VQEKlt-6gVlBHE5--3">
          <mxGeometry width="50" height="50" relative="1" as="geometry">
            <mxPoint x="374" y="105" as="sourcePoint" />
            <mxPoint x="474" y="125" as="targetPoint" />
          </mxGeometry>
        </mxCell>
        <mxCell id="GKN7VQEKlt-6gVlBHE5--2" value="192.168.92.128" style="text;html=1;align=center;verticalAlign=middle;resizable=0;points=[];autosize=1;strokeColor=none;fillColor=none;" vertex="1" parent="1">
          <mxGeometry x="264" y="95" width="110" height="30" as="geometry" />
        </mxCell>
        <mxCell id="GKN7VQEKlt-6gVlBHE5--3" value="10.10.0.1" style="text;html=1;align=center;verticalAlign=middle;resizable=0;points=[];autosize=1;strokeColor=none;fillColor=none;" vertex="1" parent="1">
          <mxGeometry x="474" y="115" width="70" height="30" as="geometry" />
        </mxCell>
        <mxCell id="GKN7VQEKlt-6gVlBHE5--4" value="SYN" style="text;html=1;align=center;verticalAlign=middle;resizable=0;points=[];autosize=1;strokeColor=none;fillColor=none;" vertex="1" parent="1">
          <mxGeometry x="398" y="85" width="50" height="30" as="geometry" />
        </mxCell>
        <mxCell id="GKN7VQEKlt-6gVlBHE5--6" value="" style="endArrow=classic;html=1;rounded=0;exitX=0.027;exitY=0.561;exitDx=0;exitDy=0;exitPerimeter=0;entryX=1.005;entryY=0.538;entryDx=0;entryDy=0;entryPerimeter=0;" edge="1" parent="1" source="GKN7VQEKlt-6gVlBHE5--7" target="GKN7VQEKlt-6gVlBHE5--9">
          <mxGeometry width="50" height="50" relative="1" as="geometry">
            <mxPoint x="362" y="155" as="sourcePoint" />
            <mxPoint x="364" y="205" as="targetPoint" />
          </mxGeometry>
        </mxCell>
        <mxCell id="GKN7VQEKlt-6gVlBHE5--7" value="10.10.0.1" style="text;html=1;align=center;verticalAlign=middle;resizable=0;points=[];autosize=1;strokeColor=none;fillColor=none;" vertex="1" parent="1">
          <mxGeometry x="462" y="165" width="70" height="30" as="geometry" />
        </mxCell>
        <mxCell id="GKN7VQEKlt-6gVlBHE5--8" value="SYN, ACK" style="text;html=1;align=center;verticalAlign=middle;resizable=0;points=[];autosize=1;strokeColor=none;fillColor=none;" vertex="1" parent="1">
          <mxGeometry x="368" y="175" width="80" height="30" as="geometry" />
        </mxCell>
        <mxCell id="GKN7VQEKlt-6gVlBHE5--9" value="192.168.92.128" style="text;html=1;align=center;verticalAlign=middle;resizable=0;points=[];autosize=1;strokeColor=none;fillColor=none;" vertex="1" parent="1">
          <mxGeometry x="284" y="205" width="110" height="30" as="geometry" />
        </mxCell>
        <mxCell id="GKN7VQEKlt-6gVlBHE5--10" value="192.168.92.128" style="text;html=1;align=center;verticalAlign=middle;resizable=0;points=[];autosize=1;strokeColor=none;fillColor=none;" vertex="1" parent="1">
          <mxGeometry x="284" y="255" width="110" height="30" as="geometry" />
        </mxCell>
        <mxCell id="GKN7VQEKlt-6gVlBHE5--11" value="10.10.0.1" style="text;html=1;align=center;verticalAlign=middle;resizable=0;points=[];autosize=1;strokeColor=none;fillColor=none;" vertex="1" parent="1">
          <mxGeometry x="462" y="285" width="70" height="30" as="geometry" />
        </mxCell>
        <mxCell id="GKN7VQEKlt-6gVlBHE5--12" value="" style="endArrow=classic;html=1;rounded=0;exitX=0.993;exitY=0.546;exitDx=0;exitDy=0;exitPerimeter=0;entryX=0.013;entryY=0.53;entryDx=0;entryDy=0;entryPerimeter=0;" edge="1" parent="1" source="GKN7VQEKlt-6gVlBHE5--10" target="GKN7VQEKlt-6gVlBHE5--11">
          <mxGeometry width="50" height="50" relative="1" as="geometry">
            <mxPoint x="404" y="215" as="sourcePoint" />
            <mxPoint x="454" y="165" as="targetPoint" />
          </mxGeometry>
        </mxCell>
        <mxCell id="GKN7VQEKlt-6gVlBHE5--14" value="ACK" style="text;html=1;align=center;verticalAlign=middle;resizable=0;points=[];autosize=1;strokeColor=none;fillColor=none;" vertex="1" parent="1">
          <mxGeometry x="409" y="245" width="50" height="30" as="geometry" />
        </mxCell>
        <mxCell id="GKN7VQEKlt-6gVlBHE5--15" value="seq=0,ack=1, len=0" style="text;html=1;align=center;verticalAlign=middle;resizable=0;points=[];autosize=1;strokeColor=none;fillColor=none;" vertex="1" parent="1">
          <mxGeometry x="332" y="125" width="130" height="30" as="geometry" />
        </mxCell>
        <mxCell id="GKN7VQEKlt-6gVlBHE5--16" value="seq=0,ack=1, len=0" style="text;html=1;align=center;verticalAlign=middle;resizable=0;points=[];autosize=1;strokeColor=none;fillColor=none;" vertex="1" parent="1">
          <mxGeometry x="414" y="195" width="130" height="30" as="geometry" />
        </mxCell>
        <mxCell id="GKN7VQEKlt-6gVlBHE5--17" value="seq=1,ack=1, len=0" style="text;html=1;align=center;verticalAlign=middle;resizable=0;points=[];autosize=1;strokeColor=none;fillColor=none;" vertex="1" parent="1">
          <mxGeometry x="318" y="285" width="130" height="30" as="geometry" />
        </mxCell>
        <mxCell id="GKN7VQEKlt-6gVlBHE5--18" value="192.168.92.128" style="text;html=1;align=center;verticalAlign=middle;resizable=0;points=[];autosize=1;strokeColor=none;fillColor=none;" vertex="1" parent="1">
          <mxGeometry x="284" y="355" width="110" height="30" as="geometry" />
        </mxCell>
        <mxCell id="GKN7VQEKlt-6gVlBHE5--19" value="10.10.0.1" style="text;html=1;align=center;verticalAlign=middle;resizable=0;points=[];autosize=1;strokeColor=none;fillColor=none;" vertex="1" parent="1">
          <mxGeometry x="484" y="395" width="70" height="30" as="geometry" />
        </mxCell>
        <mxCell id="GKN7VQEKlt-6gVlBHE5--20" value="" style="endArrow=classic;html=1;rounded=0;exitX=0.996;exitY=0.486;exitDx=0;exitDy=0;exitPerimeter=0;entryX=-0.003;entryY=0.563;entryDx=0;entryDy=0;entryPerimeter=0;" edge="1" parent="1" source="GKN7VQEKlt-6gVlBHE5--18" target="GKN7VQEKlt-6gVlBHE5--19">
          <mxGeometry width="50" height="50" relative="1" as="geometry">
            <mxPoint x="404" y="345" as="sourcePoint" />
            <mxPoint x="454" y="295" as="targetPoint" />
          </mxGeometry>
        </mxCell>
        <mxCell id="GKN7VQEKlt-6gVlBHE5--21" value="HTTP" style="text;html=1;align=center;verticalAlign=middle;resizable=0;points=[];autosize=1;strokeColor=none;fillColor=none;" vertex="1" parent="1">
          <mxGeometry x="414" y="355" width="50" height="30" as="geometry" />
        </mxCell>
        <mxCell id="GKN7VQEKlt-6gVlBHE5--22" value="len=141" style="text;html=1;align=center;verticalAlign=middle;resizable=0;points=[];autosize=1;strokeColor=none;fillColor=none;" vertex="1" parent="1">
          <mxGeometry x="388" y="395" width="70" height="30" as="geometry" />
        </mxCell>
        <mxCell id="GKN7VQEKlt-6gVlBHE5--23" value="10.10.0.1" style="text;html=1;align=center;verticalAlign=middle;resizable=0;points=[];autosize=1;strokeColor=none;fillColor=none;" vertex="1" parent="1">
          <mxGeometry x="484" y="435" width="70" height="30" as="geometry" />
        </mxCell>
        <mxCell id="GKN7VQEKlt-6gVlBHE5--24" value="192.168.92.128" style="text;html=1;align=center;verticalAlign=middle;resizable=0;points=[];autosize=1;strokeColor=none;fillColor=none;" vertex="1" parent="1">
          <mxGeometry x="284" y="475" width="110" height="30" as="geometry" />
        </mxCell>
        <mxCell id="GKN7VQEKlt-6gVlBHE5--25" value="" style="endArrow=classic;html=1;rounded=0;exitX=0.018;exitY=0.599;exitDx=0;exitDy=0;exitPerimeter=0;entryX=1.005;entryY=0.618;entryDx=0;entryDy=0;entryPerimeter=0;" edge="1" parent="1" source="GKN7VQEKlt-6gVlBHE5--23" target="GKN7VQEKlt-6gVlBHE5--24">
          <mxGeometry width="50" height="50" relative="1" as="geometry">
            <mxPoint x="404" y="435" as="sourcePoint" />
            <mxPoint x="454" y="385" as="targetPoint" />
          </mxGeometry>
        </mxCell>
        <mxCell id="GKN7VQEKlt-6gVlBHE5--26" value="ACK" style="text;html=1;align=center;verticalAlign=middle;resizable=0;points=[];autosize=1;strokeColor=none;fillColor=none;" vertex="1" parent="1">
          <mxGeometry x="408" y="445" width="50" height="30" as="geometry" />
        </mxCell>
        <mxCell id="GKN7VQEKlt-6gVlBHE5--27" value="seq=1,ack=88, len=0" style="text;html=1;align=center;verticalAlign=middle;resizable=0;points=[];autosize=1;strokeColor=none;fillColor=none;" vertex="1" parent="1">
          <mxGeometry x="404" y="475" width="140" height="30" as="geometry" />
        </mxCell>
        <mxCell id="GKN7VQEKlt-6gVlBHE5--28" value="10.10.0.1" style="text;html=1;align=center;verticalAlign=middle;resizable=0;points=[];autosize=1;strokeColor=none;fillColor=none;" vertex="1" parent="1">
          <mxGeometry x="484" y="525" width="70" height="30" as="geometry" />
        </mxCell>
        <mxCell id="GKN7VQEKlt-6gVlBHE5--29" value="192.168.92.128" style="text;html=1;align=center;verticalAlign=middle;resizable=0;points=[];autosize=1;strokeColor=none;fillColor=none;" vertex="1" parent="1">
          <mxGeometry x="278" y="565" width="110" height="30" as="geometry" />
        </mxCell>
        <mxCell id="GKN7VQEKlt-6gVlBHE5--31" value="" style="endArrow=classic;html=1;rounded=0;exitX=-0.009;exitY=0.539;exitDx=0;exitDy=0;exitPerimeter=0;entryX=1.028;entryY=0.515;entryDx=0;entryDy=0;entryPerimeter=0;" edge="1" parent="1" source="GKN7VQEKlt-6gVlBHE5--28" target="GKN7VQEKlt-6gVlBHE5--29">
          <mxGeometry width="50" height="50" relative="1" as="geometry">
            <mxPoint x="478" y="545" as="sourcePoint" />
            <mxPoint x="388" y="586" as="targetPoint" />
          </mxGeometry>
        </mxCell>
        <mxCell id="GKN7VQEKlt-6gVlBHE5--32" value="HTTP" style="text;html=1;align=center;verticalAlign=middle;resizable=0;points=[];autosize=1;strokeColor=none;fillColor=none;" vertex="1" parent="1">
          <mxGeometry x="404" y="535" width="50" height="30" as="geometry" />
        </mxCell>
        <mxCell id="GKN7VQEKlt-6gVlBHE5--33" value="len=229" style="text;html=1;align=center;verticalAlign=middle;resizable=0;points=[];autosize=1;strokeColor=none;fillColor=none;" vertex="1" parent="1">
          <mxGeometry x="409" y="565" width="70" height="30" as="geometry" />
        </mxCell>
        <mxCell id="GKN7VQEKlt-6gVlBHE5--34" value="192.168.92.128" style="text;html=1;align=center;verticalAlign=middle;resizable=0;points=[];autosize=1;strokeColor=none;fillColor=none;" vertex="1" parent="1">
          <mxGeometry x="278" y="615" width="110" height="30" as="geometry" />
        </mxCell>
        <mxCell id="GKN7VQEKlt-6gVlBHE5--35" value="10.10.0.1" style="text;html=1;align=center;verticalAlign=middle;resizable=0;points=[];autosize=1;strokeColor=none;fillColor=none;" vertex="1" parent="1">
          <mxGeometry x="484" y="675" width="70" height="30" as="geometry" />
        </mxCell>
        <mxCell id="GKN7VQEKlt-6gVlBHE5--36" value="" style="endArrow=classic;html=1;rounded=0;exitX=1.015;exitY=0.575;exitDx=0;exitDy=0;exitPerimeter=0;entryX=-0.015;entryY=0.428;entryDx=0;entryDy=0;entryPerimeter=0;" edge="1" parent="1" source="GKN7VQEKlt-6gVlBHE5--34" target="GKN7VQEKlt-6gVlBHE5--35">
          <mxGeometry width="50" height="50" relative="1" as="geometry">
            <mxPoint x="404" y="575" as="sourcePoint" />
            <mxPoint x="454" y="525" as="targetPoint" />
          </mxGeometry>
        </mxCell>
        <mxCell id="GKN7VQEKlt-6gVlBHE5--37" value="ACK" style="text;html=1;align=center;verticalAlign=middle;resizable=0;points=[];autosize=1;strokeColor=none;fillColor=none;" vertex="1" parent="1">
          <mxGeometry x="412" y="625" width="50" height="30" as="geometry" />
        </mxCell>
        <mxCell id="GKN7VQEKlt-6gVlBHE5--38" value="seq=88,ack=176, len=0" style="text;html=1;align=center;verticalAlign=middle;resizable=0;points=[];autosize=1;strokeColor=none;fillColor=none;" vertex="1" parent="1">
          <mxGeometry x="322" y="665" width="150" height="30" as="geometry" />
        </mxCell>
        <mxCell id="GKN7VQEKlt-6gVlBHE5--39" value="192.168.92.128" style="text;html=1;align=center;verticalAlign=middle;resizable=0;points=[];autosize=1;strokeColor=none;fillColor=none;" vertex="1" parent="1">
          <mxGeometry x="278" y="715" width="110" height="30" as="geometry" />
        </mxCell>
        <mxCell id="GKN7VQEKlt-6gVlBHE5--40" value="10.10.0.1" style="text;html=1;align=center;verticalAlign=middle;resizable=0;points=[];autosize=1;strokeColor=none;fillColor=none;" vertex="1" parent="1">
          <mxGeometry x="484" y="765" width="70" height="30" as="geometry" />
        </mxCell>
        <mxCell id="GKN7VQEKlt-6gVlBHE5--41" value="" style="endArrow=classic;html=1;rounded=0;exitX=1.015;exitY=0.575;exitDx=0;exitDy=0;exitPerimeter=0;entryX=-0.006;entryY=0.441;entryDx=0;entryDy=0;entryPerimeter=0;" edge="1" parent="1" source="GKN7VQEKlt-6gVlBHE5--39" target="GKN7VQEKlt-6gVlBHE5--40">
          <mxGeometry width="50" height="50" relative="1" as="geometry">
            <mxPoint x="404" y="755" as="sourcePoint" />
            <mxPoint x="454" y="705" as="targetPoint" />
          </mxGeometry>
        </mxCell>
        <mxCell id="GKN7VQEKlt-6gVlBHE5--42" value="FIN, ACK" style="text;html=1;align=center;verticalAlign=middle;resizable=0;points=[];autosize=1;strokeColor=none;fillColor=none;" vertex="1" parent="1">
          <mxGeometry x="412" y="725" width="70" height="30" as="geometry" />
        </mxCell>
        <mxCell id="GKN7VQEKlt-6gVlBHE5--43" value="seq=88,ack=176, len=0" style="text;html=1;align=center;verticalAlign=middle;resizable=0;points=[];autosize=1;strokeColor=none;fillColor=none;" vertex="1" parent="1">
          <mxGeometry x="322" y="765" width="150" height="30" as="geometry" />
        </mxCell>
        <mxCell id="GKN7VQEKlt-6gVlBHE5--44" value="10.10.0.1" style="text;html=1;align=center;verticalAlign=middle;resizable=0;points=[];autosize=1;strokeColor=none;fillColor=none;" vertex="1" parent="1">
          <mxGeometry x="484" y="815" width="70" height="30" as="geometry" />
        </mxCell>
        <mxCell id="GKN7VQEKlt-6gVlBHE5--45" value="192.168.92.128" style="text;html=1;align=center;verticalAlign=middle;resizable=0;points=[];autosize=1;strokeColor=none;fillColor=none;" vertex="1" parent="1">
          <mxGeometry x="284" y="855" width="110" height="30" as="geometry" />
        </mxCell>
        <mxCell id="GKN7VQEKlt-6gVlBHE5--46" value="" style="endArrow=classic;html=1;rounded=0;exitX=-0.045;exitY=0.518;exitDx=0;exitDy=0;exitPerimeter=0;entryX=1.012;entryY=0.398;entryDx=0;entryDy=0;entryPerimeter=0;" edge="1" parent="1" source="GKN7VQEKlt-6gVlBHE5--44" target="GKN7VQEKlt-6gVlBHE5--45">
          <mxGeometry width="50" height="50" relative="1" as="geometry">
            <mxPoint x="395" y="825" as="sourcePoint" />
            <mxPoint x="445" y="775" as="targetPoint" />
          </mxGeometry>
        </mxCell>
        <mxCell id="GKN7VQEKlt-6gVlBHE5--47" value="ACK" style="text;html=1;align=center;verticalAlign=middle;resizable=0;points=[];autosize=1;strokeColor=none;fillColor=none;" vertex="1" parent="1">
          <mxGeometry x="394" y="825" width="50" height="30" as="geometry" />
        </mxCell>
        <mxCell id="GKN7VQEKlt-6gVlBHE5--48" value="seq=176,ack=89, len=0" style="text;html=1;align=center;verticalAlign=middle;resizable=0;points=[];autosize=1;strokeColor=none;fillColor=none;" vertex="1" parent="1">
          <mxGeometry x="412" y="855" width="150" height="30" as="geometry" />
        </mxCell>
        <mxCell id="GKN7VQEKlt-6gVlBHE5--49" value="10.10.0.1" style="text;html=1;align=center;verticalAlign=middle;resizable=0;points=[];autosize=1;strokeColor=none;fillColor=none;" vertex="1" parent="1">
          <mxGeometry x="484" y="915" width="70" height="30" as="geometry" />
        </mxCell>
        <mxCell id="GKN7VQEKlt-6gVlBHE5--50" value="192.168.92.128" style="text;html=1;align=center;verticalAlign=middle;resizable=0;points=[];autosize=1;strokeColor=none;fillColor=none;" vertex="1" parent="1">
          <mxGeometry x="284" y="965" width="110" height="30" as="geometry" />
        </mxCell>
        <mxCell id="GKN7VQEKlt-6gVlBHE5--51" value="" style="endArrow=classic;html=1;rounded=0;exitX=-0.001;exitY=0.534;exitDx=0;exitDy=0;exitPerimeter=0;entryX=0.995;entryY=0.528;entryDx=0;entryDy=0;entryPerimeter=0;" edge="1" parent="1" source="GKN7VQEKlt-6gVlBHE5--49" target="GKN7VQEKlt-6gVlBHE5--50">
          <mxGeometry width="50" height="50" relative="1" as="geometry">
            <mxPoint x="395" y="865" as="sourcePoint" />
            <mxPoint x="445" y="815" as="targetPoint" />
          </mxGeometry>
        </mxCell>
        <mxCell id="GKN7VQEKlt-6gVlBHE5--52" value="FIN, PSH, ACK" style="text;html=1;align=center;verticalAlign=middle;resizable=0;points=[];autosize=1;strokeColor=none;fillColor=none;" vertex="1" parent="1">
          <mxGeometry x="354" y="925" width="110" height="30" as="geometry" />
        </mxCell>
        <mxCell id="GKN7VQEKlt-6gVlBHE5--53" value="seq=176,ack=89, len=0" style="text;html=1;align=center;verticalAlign=middle;resizable=0;points=[];autosize=1;strokeColor=none;fillColor=none;" vertex="1" parent="1">
          <mxGeometry x="412" y="965" width="150" height="30" as="geometry" />
        </mxCell>
        <mxCell id="GKN7VQEKlt-6gVlBHE5--54" value="192.168.92.128" style="text;html=1;align=center;verticalAlign=middle;resizable=0;points=[];autosize=1;strokeColor=none;fillColor=none;" vertex="1" parent="1">
          <mxGeometry x="284" y="1025" width="110" height="30" as="geometry" />
        </mxCell>
        <mxCell id="GKN7VQEKlt-6gVlBHE5--55" value="10.10.0.1" style="text;html=1;align=center;verticalAlign=middle;resizable=0;points=[];autosize=1;strokeColor=none;fillColor=none;" vertex="1" parent="1">
          <mxGeometry x="492" y="1045" width="70" height="30" as="geometry" />
        </mxCell>
        <mxCell id="GKN7VQEKlt-6gVlBHE5--56" value="" style="endArrow=classic;html=1;rounded=0;exitX=1.005;exitY=0.507;exitDx=0;exitDy=0;exitPerimeter=0;entryX=-0.045;entryY=0.463;entryDx=0;entryDy=0;entryPerimeter=0;" edge="1" parent="1" source="GKN7VQEKlt-6gVlBHE5--54" target="GKN7VQEKlt-6gVlBHE5--55">
          <mxGeometry width="50" height="50" relative="1" as="geometry">
            <mxPoint x="395" y="965" as="sourcePoint" />
            <mxPoint x="445" y="915" as="targetPoint" />
          </mxGeometry>
        </mxCell>
        <mxCell id="GKN7VQEKlt-6gVlBHE5--57" value="ACK" style="text;html=1;align=center;verticalAlign=middle;resizable=0;points=[];autosize=1;strokeColor=none;fillColor=none;" vertex="1" parent="1">
          <mxGeometry x="422" y="1015" width="50" height="30" as="geometry" />
        </mxCell>
        <mxCell id="GKN7VQEKlt-6gVlBHE5--58" value="seq=89,ack=177, len=0" style="text;html=1;align=center;verticalAlign=middle;resizable=0;points=[];autosize=1;strokeColor=none;fillColor=none;" vertex="1" parent="1">
          <mxGeometry x="342" y="1055" width="150" height="30" as="geometry" />
        </mxCell>
      </root>
    </mxGraphModel>
  </diagram>
</mxfile>
